# Blender v2.77 (sub 0) OBJ File: ''
# www.blender.org
mtllib Ancient Well Bridge Block.mtl
o MODELS_bin_007:poly000
v 1.649219 3.298047 1.883204
v 1.649219 1.648828 1.883204
v 0.000000 3.298047 1.883204
v 0.000000 1.648828 1.883204
v -1.648828 1.648828 1.883204
v -1.648828 -0.000000 1.883203
v 1.649219 3.298048 0.233985
v 1.649219 1.648828 0.233985
v 1.649219 -0.000000 1.883203
v 1.649219 0.000000 -1.414453
v 1.649219 3.298048 -1.414453
v 0.000000 3.298048 -1.414453
v 1.649219 1.648829 -1.414453
v 0.000000 1.649220 -1.414453
v -1.648828 0.000000 -1.414453
v -1.648828 3.298048 -1.414453
v -1.648828 1.648829 -1.414453
v -1.648828 3.298048 0.233985
v -1.648828 1.648828 0.233985
v -1.648828 3.298047 1.883204
v -1.648828 3.298047 1.883204
v -1.648828 3.298048 0.233985
v 0.000000 3.298047 1.883204
v 0.000000 3.298048 0.233985
v 1.649219 3.298048 0.233985
v 0.000000 3.298048 -1.414453
v 1.649219 3.298048 -1.414453
v -1.648828 3.298048 -1.414453
v 1.649219 3.298047 1.883204
vt 1.0000 0.0000
vt 0.5000 0.0000
vt 1.0000 0.5000
vt 0.5000 0.5000
vt 0.0000 0.5000
vt 0.0000 1.0000
vt 0.0000 0.0000
vt 0.0000 0.5000
vt 0.5000 0.0000
vt 0.5000 0.5000
vt 0.0000 1.0000
vt 1.0000 1.0000
vt 0.0000 0.0010
vt 0.0000 0.5010
vt 0.4990 0.0010
vt 0.4990 0.5010
vt 0.0000 1.0000
vt 0.9990 1.0000
vt 0.9990 0.0010
vt 0.9990 0.5010
vt 0.0000 0.0010
vt 0.0000 0.5010
vt 0.4990 0.0010
vt 0.4990 0.5010
vt 0.0000 1.0000
vt 0.9990 1.0000
vt 1.0000 0.0000
vt 1.0000 0.5000
vt 0.9990 0.0010
vt 0.9990 0.5010
vt 1.0000 1.0000
vt 0.0000 0.0000
vt 0.0000 1.0000
vt 0.5000 1.0000
vt 0.0000 0.5000
vt 0.5000 0.5000
vt 1.0000 0.5000
vt 0.5000 0.0000
vt 1.0000 0.0000
vt 0.0000 0.0000
vt 1.0000 1.0000
vn 0.0000 -0.0000 1.0000
vn 1.0000 0.0000 0.0000
vn 0.0000 0.0000 -1.0000
vn -1.0000 0.0000 0.0000
vn 0.0000 1.0000 0.0000
usemtl None
s 1
f 1/1/1 3/2/1 2/3/1
f 2/3/1 3/2/1 4/4/1
f 3/2/1 5/5/1 4/4/1
f 4/4/1 5/5/1 6/6/1
f 1/7/2 2/8/2 7/9/2
f 7/9/2 2/8/2 8/10/2
f 2/8/2 9/11/2 8/10/2
f 8/10/2 9/11/2 10/12/2
f 11/13/3 13/14/3 12/15/3
f 12/15/3 13/14/3 14/16/3
f 13/14/3 10/17/3 14/16/3
f 14/16/3 10/17/3 15/18/3
f 16/19/3 12/15/3 17/20/3
f 17/20/3 12/15/3 14/16/3
f 16/21/4 17/22/4 18/23/4
f 18/23/4 17/22/4 19/24/4
f 17/22/4 15/25/4 19/24/4
f 19/24/4 15/25/4 6/26/4
f 11/27/2 7/9/2 13/28/2
f 13/28/2 7/9/2 8/10/2
f 20/29/4 18/23/4 5/30/4
f 5/30/4 18/23/4 19/24/4
f 6/6/1 9/31/1 4/4/1
f 4/4/1 9/31/1 2/3/1
f 5/5/1 3/2/1 20/32/1
f 13/28/2 8/10/2 10/12/2
f 17/20/3 14/16/3 15/18/3
f 5/30/4 19/24/4 6/26/4
usemtl None_MODELS.bin.007.001.png
f 21/33/5 23/34/5 22/35/5
f 22/35/5 23/34/5 24/36/5
f 23/34/5 25/37/5 24/36/5
f 24/36/5 25/37/5 26/38/5
f 25/37/5 27/39/5 26/38/5
f 28/40/5 22/35/5 26/38/5
f 26/38/5 22/35/5 24/36/5
f 25/37/5 23/34/5 29/41/5
