# Exported by ZModeler 2.2.4 (Build 981) with WavefrontOBJ filter (Build 45)
# 

mtllib basic_block.mtl

v -1.0534 -0.8939 0.8939
v -1.0534 -1.0534 1.0534
v -1.0534 1.0534 1.0534
v -1.0534 0.8939 0.8939
v -1.0534 -0.8939 -0.8939
v -1.0534 -1.0534 -1.0534
v -1.0534 -1.0534 1.0534
v -1.0534 -0.8939 0.8939
v -1.0534 0.8939 0.8939
v -1.0534 1.0534 1.0534
v -1.0534 1.0534 -1.0534
v -1.0534 0.8939 -0.8939
v -1.0534 0.8939 -0.8939
v -1.0534 1.0534 -1.0534
v -1.0534 -1.0534 -1.0534
v -1.0534 -0.8939 -0.8939
v -0.9999 -0.8485 0.8485
v -0.9999 0.8485 0.8485
v -0.9999 -0.8485 -0.8485
v -0.9999 -0.8485 0.8485
v -0.9999 0.8485 0.8485
v -0.9999 0.8485 -0.8485
v -0.9999 0.8485 -0.8485
v -0.9999 -0.8485 -0.8485
v -0.9999 -0.8485 -0.8485
v -0.9999 -0.8485 0.8485
v -0.9999 0.8485 0.8485
v -0.9999 0.8485 -0.8485
v -0.9086 1.0534 -0.9086
v -1.0534 1.0534 1.0534
v -0.9086 1.0534 0.9086
v -0.9067 -1.0534 0.9067
v -1.0534 -1.0534 1.0534
v -0.9067 -1.0534 -0.9067
v -0.8835 0.8835 1.0534
v -1.0534 1.0534 1.0534
v -0.8835 -0.8835 1.0534
v -0.8826 -0.8826 -1.0534
v -0.8826 0.8826 -1.0534
v -0.8625 0.9999 -0.8625
v -0.8625 0.9999 0.8625
v -0.8607 -0.9999 0.8607
v -0.8607 -0.9999 -0.8607
v -0.8387 0.8387 0.9999
v -0.8387 -0.8387 0.9999
v -0.8379 -0.8379 -0.9999
v -0.8379 0.8379 -0.9999
v -0.8835 -0.8835 1.0534
v -1.0534 -1.0534 1.0534
v 1.0534 -1.0534 1.0534
v 0.8835 -0.8835 1.0534
v 0.8835 0.8835 1.0534
v 1.0534 1.0534 1.0534
v -1.0534 1.0534 1.0534
v -0.8835 0.8835 1.0534
v -0.8387 -0.8387 0.9999
v 0.8387 -0.8387 0.9999
v 0.8387 0.8387 0.9999
v -0.8387 0.8387 0.9999
v -0.8387 0.8387 0.9999
v -0.8387 -0.8387 0.9999
v 0.8387 -0.8387 0.9999
v 0.8387 0.8387 0.9999
v -0.9086 1.0534 0.9086
v -1.0534 1.0534 1.0534
v 0.9086 1.0534 0.9086
v 0.9067 -1.0534 0.9067
v -0.9067 -1.0534 0.9067
v -0.8625 0.9999 0.8625
v 0.8625 0.9999 0.8625
v 0.8607 -0.9999 0.8607
v -0.8607 -0.9999 0.8607
v -0.8607 -0.9999 0.8607
v -0.8607 -0.9999 -0.8607
v 0.8607 -0.9999 -0.8607
v 0.8607 -0.9999 0.8607
v -0.8625 0.9999 -0.8625
v -0.8625 0.9999 0.8625
v 0.8625 0.9999 0.8625
v 0.8625 0.9999 -0.8625
v -0.8607 -0.9999 -0.8607
v -0.9067 -1.0534 -0.9067
v 0.9067 -1.0534 -0.9067
v 0.8607 -0.9999 -0.8607
v 0.8625 0.9999 -0.8625
v 0.9086 1.0534 -0.9086
v -0.9086 1.0534 -0.9086
v -0.8625 0.9999 -0.8625
v 1.0534 -1.0534 -1.0534
v 1.0534 1.0534 -1.0534
v -0.8379 -0.8379 -0.9999
v -0.8379 0.8379 -0.9999
v 0.8379 0.8379 -0.9999
v 0.8379 -0.8379 -0.9999
v 0.8379 -0.8379 -0.9999
v 0.8826 -0.8826 -1.0534
v -0.8826 -0.8826 -1.0534
v -0.8379 -0.8379 -0.9999
v -0.8379 0.8379 -0.9999
v -0.8826 0.8826 -1.0534
v 0.8826 0.8826 -1.0534
v 0.8379 0.8379 -0.9999
v 0.8379 0.8379 -0.9999
v 0.8826 0.8826 -1.0534
v 0.8826 -0.8826 -1.0534
v 0.8379 -0.8379 -0.9999
v 0.8387 -0.8387 0.9999
v 0.8835 -0.8835 1.0534
v 0.8835 0.8835 1.0534
v 0.8387 0.8387 0.9999
v 0.8607 -0.9999 -0.8607
v 0.9067 -1.0534 -0.9067
v 0.9067 -1.0534 0.9067
v 0.8607 -0.9999 0.8607
v 0.8625 0.9999 0.8625
v 0.8625 0.9999 -0.8625
v 1.0534 1.0534 -1.0534
v 1.0534 -1.0534 -1.0534
v 1.0534 -1.0534 1.0534
v 1.0534 1.0534 1.0534
v 1.0534 1.0534 1.0534
v 1.0534 1.0534 -1.0534
v 0.9999 0.8458 -0.8458
v 0.9999 0.8458 0.8458
v 0.9999 -0.8458 0.8458
v 0.9999 -0.8458 -0.8458
v 0.9999 0.8458 0.8458
v 1.0534 0.8911 0.8911
v 1.0534 -0.8911 0.8911
v 0.9999 -0.8458 0.8458
v 0.9999 -0.8458 0.8458
v 1.0534 -0.8911 0.8911
v 1.0534 -0.8911 -0.8911
v 0.9999 -0.8458 -0.8458
v 0.9999 0.8458 -0.8458
v 1.0534 0.8911 -0.8911
v 0.9999 0.8458 0.8458
v 0.9999 -0.8458 -0.8458
v 1.0534 -0.8911 -0.8911
v 0.9999 0.8458 -0.8458
v 1.0534 1.0534 1.0534
v 1.0534 -1.0534 1.0534
v 1.0534 -1.0534 1.0534
v 1.0534 1.0534 -1.0534
v 1.0534 1.0534 1.0534


vn -0.950404 0.219924 -0.219924
vn -0.57735 -0.57735 0.57735
vn -0.57735 0.57735 0.57735
vn -0.950404 -0.219924 -0.219924
vn -0.950404 0.219924 0.219924
vn -0.57735 -0.57735 -0.57735
vn -0.57735 -0.57735 0.57735
vn -0.950404 0.219924 -0.219924
vn -0.950404 -0.219924 -0.219924
vn -0.57735 0.57735 0.57735
vn -0.57735 0.57735 -0.57735
vn -0.950404 -0.219924 0.219924
vn -0.950404 -0.219924 0.219924
vn -0.57735 0.57735 -0.57735
vn -0.57735 -0.57735 -0.57735
vn -0.950404 0.219924 0.219924
vn -0.768267 0.45264 -0.45264
vn -0.768267 -0.45264 -0.45264
vn -0.768267 0.45264 0.45264
vn -0.768267 0.45264 -0.45264
vn -0.768267 -0.45264 -0.45264
vn -0.768267 -0.45264 0.45264
vn -0.768267 -0.45264 0.45264
vn -0.768267 0.45264 0.45264
vn -1 0 0
vn -1 0 0
vn -1 0 0
vn -1 0 0
vn 0.217817 0.951374 0.217817
vn -0.57735 0.57735 0.57735
vn 0.217817 0.951374 -0.217817
vn 0.218109 -0.95124 -0.218109
vn -0.57735 -0.57735 0.57735
vn 0.218109 -0.95124 0.218109
vn 0.221425 -0.221425 0.949706
vn -0.57735 0.57735 0.57735
vn 0.221425 0.221425 0.949706
vn 0.221605 0.221605 -0.949622
vn 0.221605 -0.221605 -0.949622
vn 0.448314 0.773324 0.448314
vn 0.448314 0.773324 -0.448314
vn 0.448821 -0.772735 -0.448821
vn 0.448821 -0.772735 0.448821
vn 0.455749 -0.455749 0.764582
vn 0.455749 0.455749 0.764582
vn 0.456029 0.456029 -0.764248
vn 0.456029 -0.456029 -0.764248
vn 0.221425 0.221425 0.949706
vn -0.57735 -0.57735 0.57735
vn 0.57735 -0.57735 0.57735
vn -0.221425 0.221425 0.949706
vn -0.221425 -0.221425 0.949706
vn 0.57735 0.57735 0.57735
vn -0.57735 0.57735 0.57735
vn 0.221425 -0.221425 0.949706
vn 0.455749 0.455749 0.764582
vn -0.455749 0.455749 0.764582
vn -0.455749 -0.455749 0.764582
vn 0.455749 -0.455749 0.764582
vn -0 0 1
vn -0 0 1
vn -0 0 1
vn -0 0 1
vn 0.217817 0.951374 -0.217817
vn -0.57735 0.57735 0.57735
vn -0.217817 0.951374 -0.217817
vn -0.218109 -0.95124 -0.218109
vn 0.218109 -0.95124 -0.218109
vn 0.448314 0.773324 -0.448314
vn -0.448314 0.773324 -0.448314
vn -0.448821 -0.772735 -0.448821
vn 0.448821 -0.772735 -0.448821
vn -0 -1 0
vn -0 -1 0
vn -0 -1 0
vn -0 -1 0
vn -0 1 0
vn -0 1 0
vn -0 1 0
vn -0 1 0
vn 0.448821 -0.772735 0.448821
vn 0.218109 -0.95124 0.218109
vn -0.218109 -0.95124 0.218109
vn -0.448821 -0.772735 0.448821
vn -0.448314 0.773324 0.448314
vn -0.217817 0.951374 0.217817
vn 0.217817 0.951374 0.217817
vn 0.448314 0.773324 0.448314
vn 0.57735 -0.57735 -0.57735
vn 0.57735 0.57735 -0.57735
vn -0 0 -1
vn -0 0 -1
vn -0 0 -1
vn -0 0 -1
vn -0.456029 0.456029 -0.764248
vn -0.221605 0.221605 -0.949622
vn 0.221605 0.221605 -0.949622
vn 0.456029 0.456029 -0.764248
vn 0.456029 -0.456029 -0.764248
vn 0.221605 -0.221605 -0.949622
vn -0.221605 -0.221605 -0.949622
vn -0.456029 -0.456029 -0.764248
vn -0.456029 -0.456029 -0.764248
vn -0.221605 -0.221605 -0.949622
vn -0.221605 0.221605 -0.949622
vn -0.456029 0.456029 -0.764248
vn -0.455749 0.455749 0.764582
vn -0.221425 0.221425 0.949706
vn -0.221425 -0.221425 0.949706
vn -0.455749 -0.455749 0.764582
vn -0.448821 -0.772735 0.448821
vn -0.218109 -0.95124 0.218109
vn -0.218109 -0.95124 -0.218109
vn -0.448821 -0.772735 -0.448821
vn -0.448314 0.773324 -0.448314
vn -0.448314 0.773324 0.448314
vn 0.57735 0.57735 -0.57735
vn 0.57735 -0.57735 -0.57735
vn 0.57735 -0.57735 0.57735
vn 0.57735 0.57735 0.57735
vn 0.57735 0.57735 0.57735
vn 0.57735 0.57735 -0.57735
vn 1 0 0
vn 1 0 0
vn 1 0 0
vn 1 0 0
vn 0.767231 -0.453518 -0.453518
vn 0.950217 -0.220327 -0.220327
vn 0.950217 0.220327 -0.220327
vn 0.767231 0.453518 -0.453518
vn 0.767231 0.453518 -0.453518
vn 0.950217 0.220327 -0.220327
vn 0.950217 0.220327 0.220327
vn 0.767231 0.453518 0.453518
vn 0.767231 -0.453518 0.453518
vn 0.950217 -0.220327 0.220327
vn 0.767231 -0.453518 -0.453518
vn 0.767231 0.453518 0.453518
vn 0.950217 0.220327 0.220327
vn 0.767231 -0.453518 0.453518
vn 0.57735 0.57735 0.57735
vn 0.57735 -0.57735 0.57735
vn 0.57735 -0.57735 0.57735
vn 0.57735 0.57735 -0.57735
vn 0.57735 0.57735 0.57735


vt -0.0904 0.4036
vt -0.0188 0.469
vt -0.0188 -0.6187
vt -0.0904 -0.5493
vt -0.0904 0.4036
vt -0.0179 0.469
vt -0.0179 -0.6187
vt -0.0904 -0.5493
vt -0.0904 0.4036
vt -0.0159 0.469
vt -0.0159 -0.6187
vt -0.0904 -0.5493
vt -0.0904 0.4036
vt -0.0165 0.469
vt -0.0165 -0.6187
vt -0.0904 -0.5493
vt -0.0505 0.379
vt -0.0505 -0.5195
vt -0.0525 0.379
vt -0.0525 -0.5195
vt -0.053 0.379
vt -0.053 -0.5195
vt -0.055 0.379
vt -0.055 -0.5195
vt -2.1345 0.7831
vt -2.1345 0.0316
vt -2.963 0.0316
vt -2.963 0.7831
vt -0.0904 0.4036
vt -0.0165 -0.6187
vt -0.0904 -0.5493
vt -0.0904 0.4036
vt -0.0165 0.469
vt -0.0904 -0.5493
vt -0.0904 -0.5493
vt -0.0165 -0.6187
vt -0.0904 0.4036
vt -0.0904 -0.5493
vt -0.0904 0.4036
vt -0.055 0.379
vt -0.055 -0.5195
vt -0.055 0.379
vt -0.055 -0.5195
vt -0.055 -0.5195
vt -0.055 0.379
vt -0.055 -0.5195
vt -0.055 0.379
vt -0.0904 -0.5493
vt -0.0159 -0.6187
vt -0.0159 0.469
vt -0.0904 0.4036
vt -0.0904 -0.5493
vt -0.0179 -0.6187
vt -0.0179 0.469
vt -0.0904 0.4036
vt -0.053 -0.5195
vt -0.053 0.379
vt -0.0525 -0.5195
vt -0.0525 0.379
vt -2.963 0.0316
vt -2.963 0.7831
vt -2.1345 0.7831
vt -2.1345 0.0316
vt -0.0904 0.4036
vt -0.0179 0.469
vt -0.0904 -0.5493
vt -0.0904 0.4036
vt -0.0904 -0.5493
vt -0.0525 0.379
vt -0.0525 -0.5195
vt -0.053 0.379
vt -0.053 -0.5195
vt -2.963 0.0316
vt -2.963 0.7831
vt -2.1345 0.7831
vt -2.1345 0.0316
vt -2.963 0.7831
vt -2.963 0.0316
vt -2.1345 0.0316
vt -2.1345 0.7831
vt -0.0525 0.379
vt -0.0904 0.4036
vt -0.0904 -0.5493
vt -0.0525 -0.5195
vt -0.053 0.379
vt -0.0904 0.4036
vt -0.0904 -0.5493
vt -0.053 -0.5195
vt -0.0179 -0.6187
vt -0.0159 0.469
vt -2.963 0.7831
vt -2.963 0.0316
vt -2.1345 0.0316
vt -2.1345 0.7831
vt -0.0525 -0.5195
vt -0.0904 -0.5493
vt -0.0904 0.4036
vt -0.0525 0.379
vt -0.053 -0.5195
vt -0.0904 -0.5493
vt -0.0904 0.4036
vt -0.053 0.379
vt -0.0505 -0.5195
vt -0.0904 -0.5493
vt -0.0904 0.4036
vt -0.0505 0.379
vt -0.0505 -0.5195
vt -0.0904 -0.5493
vt -0.0904 0.4036
vt -0.0505 0.379
vt -0.0505 0.379
vt -0.0904 0.4036
vt -0.0904 -0.5493
vt -0.0505 -0.5195
vt -0.0505 -0.5195
vt -0.0505 0.379
vt -0.0188 -0.6187
vt -0.0188 0.469
vt -0.0188 -0.6187
vt -0.0188 0.469
vt -0.0188 -0.6187
vt -0.0188 0.469
vt -2.963 0.7831
vt -2.963 0.0316
vt -2.1345 0.0316
vt -2.1345 0.7831
vt -0.055 0.379
vt -0.0904 0.4036
vt -0.0904 -0.5493
vt -0.055 -0.5195
vt -0.0525 0.379
vt -0.0904 0.4036
vt -0.0904 -0.5493
vt -0.0525 -0.5195
vt -0.053 -0.5195
vt -0.0904 -0.5493
vt -0.053 0.379
vt -0.0505 0.379
vt -0.0904 0.4036
vt -0.0505 -0.5195
vt -0.0155 0.469
vt -0.0155 -0.6187
vt -0.0179 0.469
vt -0.0159 -0.6187
vt -0.0159 0.469


usemtl block_basic

f 1/1/1 2/2/2 3/3/3
f 1/1/1 3/3/3 4/4/4
f 5/5/5 6/6/6 7/7/7
f 5/5/5 7/7/7 8/8/8
f 9/9/9 10/10/10 11/11/11
f 9/9/9 11/11/11 12/12/12
f 13/13/13 14/14/14 15/15/15
f 13/13/13 15/15/15 16/16/16
f 17/17/17 1/1/1 4/4/4
f 4/4/4 18/18/18 17/17/17
f 19/19/19 5/5/5 8/8/8
f 8/8/8 20/20/20 19/19/19
f 21/21/21 9/9/9 12/12/12
f 12/12/12 22/22/22 21/21/21
f 23/23/23 13/13/13 16/16/16
f 16/16/16 24/24/24 23/23/23
f 25/25/25 26/26/26 27/27/27
f 25/25/25 27/27/27 28/28/28
f 29/29/29 14/14/14 30/30/30
f 29/29/29 30/30/30 31/31/31
f 32/32/32 33/33/33 15/15/15
f 32/32/32 15/15/15 34/34/34
f 35/35/35 36/36/36 33/33/33
f 35/35/35 33/33/33 37/37/37
f 38/38/38 15/15/15 14/14/14
f 38/38/38 14/14/14 39/39/39
f 40/40/40 29/29/29 31/31/31
f 31/31/31 41/41/41 40/40/40
f 42/42/42 32/32/32 34/34/34
f 34/34/34 43/43/43 42/42/42
f 44/44/44 35/35/35 37/37/37
f 37/37/37 45/45/45 44/44/44
f 46/46/46 38/38/38 39/39/39
f 39/39/39 47/47/47 46/46/46
f 48/48/48 49/49/49 50/50/50
f 48/48/48 50/50/50 51/51/51
f 52/52/52 53/53/53 54/54/54
f 52/52/52 54/54/54 55/55/55
f 56/56/56 48/48/48 51/51/51
f 51/51/51 57/57/57 56/56/56
f 58/58/58 52/52/52 55/55/55
f 55/55/55 59/59/59 58/58/58
f 60/60/60 61/61/61 62/62/62
f 60/60/60 62/62/62 63/63/63
f 64/64/64 65/65/65 53/53/53
f 64/64/64 53/53/53 66/66/66
f 67/67/67 50/50/50 49/49/49
f 67/67/67 49/49/49 68/68/68
f 69/69/69 64/64/64 66/66/66
f 66/66/66 70/70/70 69/69/69
f 71/71/71 67/67/67 68/68/68
f 68/68/68 72/72/72 71/71/71
f 73/73/73 74/74/74 75/75/75
f 73/73/73 75/75/75 76/76/76
f 77/77/77 78/78/78 79/79/79
f 77/77/77 79/79/79 80/80/80
f 81/81/81 82/82/82 83/83/83
f 83/83/83 84/84/84 81/81/81
f 85/85/85 86/86/86 87/87/87
f 87/87/87 88/88/88 85/85/85
f 82/82/82 6/6/6 89/89/89
f 82/82/82 89/89/89 83/83/83
f 86/86/86 90/90/90 11/11/11
f 86/86/86 11/11/11 87/87/87
f 91/91/91 92/92/92 93/93/93
f 91/91/91 93/93/93 94/94/94
f 95/95/95 96/96/96 97/97/97
f 97/97/97 98/98/98 95/95/95
f 99/99/99 100/100/100 101/101/101
f 101/101/101 102/102/102 99/99/99
f 96/96/96 89/89/89 6/6/6
f 96/96/96 6/6/6 97/97/97
f 100/100/100 11/11/11 90/90/90
f 100/100/100 90/90/90 101/101/101
f 103/103/103 104/104/104 105/105/105
f 105/105/105 106/106/106 103/103/103
f 107/107/107 108/108/108 109/109/109
f 109/109/109 110/110/110 107/107/107
f 111/111/111 112/112/112 113/113/113
f 113/113/113 114/114/114 111/111/111
f 115/115/115 66/66/66 86/86/86
f 86/86/86 116/116/116 115/115/115
f 104/104/104 117/117/117 118/118/118
f 104/104/104 118/118/118 105/105/105
f 108/108/108 119/119/119 120/120/120
f 108/108/108 120/120/120 109/109/109
f 112/112/112 118/118/118 119/119/119
f 112/112/112 119/119/119 113/113/113
f 66/66/66 121/121/121 122/122/122
f 66/66/66 122/122/122 86/86/86
f 123/123/123 124/124/124 125/125/125
f 123/123/123 125/125/125 126/126/126
f 127/127/127 128/128/128 129/129/129
f 129/129/129 130/130/130 127/127/127
f 131/131/131 132/132/132 133/133/133
f 133/133/133 134/134/134 131/131/131
f 135/135/135 136/136/136 128/128/128
f 128/128/128 137/137/137 135/135/135
f 138/138/138 139/139/139 136/136/136
f 136/136/136 140/140/140 138/138/138
f 128/128/128 141/141/141 142/142/142
f 128/128/128 142/142/142 129/129/129
f 132/132/132 143/143/143 89/89/89
f 132/132/132 89/89/89 133/133/133
f 136/136/136 144/144/144 145/145/145
f 136/136/136 145/145/145 128/128/128
f 139/139/139 118/118/118 117/117/117
f 139/139/139 117/117/117 136/136/136
